
<svg width="0" height="0" >
  <symbol xmlns="http://www.w3.org/2000/svg" viewBox="0 0 56.966 56.966" id="search">
    <path d="M55.146 51.887L41.588 37.786A22.926 22.926 0 0046.984 23c0-12.682-10.318-23-23-23s-23 10.318-23 23 10.318 23 23 23c4.761 0 9.298-1.436 13.177-4.162l13.661 14.208c.571.593 1.339.92 2.162.92.779 0 1.518-.297 2.079-.837a3.004 3.004 0 00.083-4.242zM23.984 6c9.374 0 17 7.626 17 17s-7.626 17-17 17-17-7.626-17-17 7.626-17 17-17z"></path>
  </symbol>
  <symbol xmlns="http://www.w3.org/2000/svg" viewBox="0 0 491.996 491.996" id="down-arrow">
    <path d="M484.132 124.986l-16.116-16.228c-5.072-5.068-11.82-7.86-19.032-7.86-7.208 0-13.964 2.792-19.036 7.86l-183.84 183.848L62.056 108.554c-5.064-5.068-11.82-7.856-19.028-7.856s-13.968 2.788-19.036 7.856l-16.12 16.128c-10.496 10.488-10.496 27.572 0 38.06l219.136 219.924c5.064 5.064 11.812 8.632 19.084 8.632h.084c7.212 0 13.96-3.572 19.024-8.632l218.932-219.328c5.072-5.064 7.856-12.016 7.864-19.224 0-7.212-2.792-14.068-7.864-19.128z"></path>
  </symbol>
  <symbol xmlns="http://www.w3.org/2000/svg" viewBox="0 0 491.996 491.996" id="top-arrow">
    <path d="M7.864 367.01l16.116 16.228c5.072 5.068 11.82 7.86 19.032 7.86 7.208 0 13.964-2.792 19.036-7.86l183.84-183.848L429.94 383.442c5.064 5.068 11.82 7.856 19.028 7.856 7.208 0 13.968-2.788 19.036-7.856l16.12-16.128c10.496-10.488 10.496-27.572 0-38.06L264.988 109.33c-5.064-5.064-11.812-8.632-19.084-8.632h-.084c-7.212 0-13.96 3.572-19.024 8.632L7.864 328.658C2.792 333.722.008 340.674 0 347.882c0 7.212 2.792 14.068 7.864 19.128z"></path>
  </symbol>
  <symbol xmlns="http://www.w3.org/2000/svg" viewBox="0 0 492 492" id="left-arrow">
    <path d="M198.608 246.104L382.664 62.04c5.068-5.056 7.856-11.816 7.856-19.024 0-7.212-2.788-13.968-7.856-19.032l-16.128-16.12C361.476 2.792 354.712 0 347.504 0s-13.964 2.792-19.028 7.864L109.328 227.008c-5.084 5.08-7.868 11.868-7.848 19.084-.02 7.248 2.76 14.028 7.848 19.112l218.944 218.932c5.064 5.072 11.82 7.864 19.032 7.864 7.208 0 13.964-2.792 19.032-7.864l16.124-16.12c10.492-10.492 10.492-27.572 0-38.06L198.608 246.104z"></path>
  </symbol>
  <symbol xmlns="http://www.w3.org/2000/svg" viewBox="0 0 492.004 492.004" id="right-arrow">
    <path d="M382.678 226.804L163.73 7.86C158.666 2.792 151.906 0 144.698 0s-13.968 2.792-19.032 7.86l-16.124 16.12c-10.492 10.504-10.492 27.576 0 38.064L293.398 245.9l-184.06 184.06c-5.064 5.068-7.86 11.824-7.86 19.028 0 7.212 2.796 13.968 7.86 19.04l16.124 16.116c5.068 5.068 11.824 7.86 19.032 7.86s13.968-2.792 19.032-7.86L382.678 265c5.076-5.084 7.864-11.872 7.848-19.088.016-7.244-2.772-14.028-7.848-19.108z"></path>
  </symbol>
  <symbol xmlns="http://www.w3.org/2000/svg" viewBox="0 0 612.02 612.02" id="double-right-arrow">
    <path d="M596.96 269.674L342.381 15.094c-20.079-20.079-52.644-20.079-72.723 0s-20.079 52.644 0 72.723L487.852 306.01 269.658 524.202c-20.079 20.079-20.079 52.644 0 72.723s52.644 20.079 72.723 0L596.96 342.346c20.079-20.029 20.079-52.593 0-72.672zm-306.102-15.416L88.744 41.238c-20.309-21.378-53.204-21.378-73.513 0s-20.309 56.058 0 77.462l165.371 174.289L15.231 467.278c-20.309 21.379-20.309 56.083 0 77.462s53.204 21.379 73.513 0l202.114-213.02c20.309-21.378 20.309-56.058 0-77.462z"></path>
  </symbol>
  <symbol xmlns="http://www.w3.org/2000/svg" viewBox="0 0 612.02 612.02" id="double-left-arrow">
    <path d="M15.059 342.345l254.579 254.58c20.079 20.079 52.644 20.079 72.723 0s20.079-52.644 0-72.723L124.166 306.009 342.361 87.817c20.079-20.079 20.079-52.644 0-72.723-20.08-20.079-52.644-20.079-72.723 0L15.057 269.673c-20.078 20.029-20.078 52.593 0 72.672zm306.101 15.416l202.114 213.02c20.31 21.378 53.204 21.378 73.513 0 20.31-21.378 20.31-56.058 0-77.462L431.418 319.03l165.37-174.289c20.31-21.379 20.31-56.083 0-77.462-20.309-21.379-53.204-21.379-73.513 0L321.16 280.299c-20.309 21.378-20.309 56.058 0 77.462z"></path>
  </symbol>
  <symbol xmlns="http://www.w3.org/2000/svg" viewBox="0 0 330 330" id="info">
    <path d="M165 0C74.019 0 0 74.02 0 165.001 0 255.982 74.019 330 165 330s165-74.018 165-164.999S255.981 0 165 0zm0 300c-74.44 0-135-60.56-135-134.999S90.56 30 165 30s135 60.562 135 135.001C300 239.44 239.439 300 165 300z"></path>
    <path d="M164.998 70c-11.026 0-19.996 8.976-19.996 20.009 0 11.023 8.97 19.991 19.996 19.991 11.026 0 19.996-8.968 19.996-19.991 0-11.033-8.97-20.009-19.996-20.009zm.002 70c-8.284 0-15 6.716-15 15v90c0 8.284 6.716 15 15 15 8.284 0 15-6.716 15-15v-90c0-8.284-6.716-15-15-15z"></path>
  </symbol>
  <symbol xmlns="http://www.w3.org/2000/svg" viewBox="0 0 486.463 486.463" id="error">
    <path d="M243.225 333.382c-13.6 0-25 11.4-25 25s11.4 25 25 25c13.1 0 25-11.4 24.4-24.4.6-14.3-10.7-25.6-24.4-25.6z"></path>
    <path d="M474.625 421.982c15.7-27.1 15.8-59.4.2-86.4l-156.6-271.2c-15.5-27.3-43.5-43.5-74.9-43.5s-59.4 16.3-74.9 43.4l-156.8 271.5c-15.6 27.3-15.5 59.8.3 86.9 15.6 26.8 43.5 42.9 74.7 42.9h312.8c31.3 0 59.4-16.3 75.2-43.6zm-34-19.6c-8.7 15-24.1 23.9-41.3 23.9h-312.8c-17 0-32.3-8.7-40.8-23.4-8.6-14.9-8.7-32.7-.1-47.7l156.8-271.4c8.5-14.9 23.7-23.7 40.9-23.7 17.1 0 32.4 8.9 40.9 23.8l156.7 271.4c8.4 14.6 8.3 32.2-.3 47.1z"></path>
    <path d="M237.025 157.882c-11.9 3.4-19.3 14.2-19.3 27.3.6 7.9 1.1 15.9 1.7 23.8 1.7 30.1 3.4 59.6 5.1 89.7.6 10.2 8.5 17.6 18.7 17.6s18.2-7.9 18.7-18.2c0-6.2 0-11.9.6-18.2 1.1-19.3 2.3-38.6 3.4-57.9.6-12.5 1.7-25 2.3-37.5 0-4.5-.6-8.5-2.3-12.5-5.1-11.2-17-16.9-28.9-14.1z"></path>
  </symbol>
  <symbol xmlns="http://www.w3.org/2000/svg" viewBox="0 0 512 512" id="success">
    <path d="M256 0C114.833 0 0 114.833 0 256s114.833 256 256 256 256-114.853 256-256S397.167 0 256 0zm0 472.341c-119.275 0-216.341-97.046-216.341-216.341S136.725 39.659 256 39.659c119.295 0 216.341 97.046 216.341 216.341S375.275 472.341 256 472.341z"></path>
    <path d="M373.451 166.965c-8.071-7.337-20.623-6.762-27.999 1.348L224.491 301.509 166.053 242.1c-7.714-7.813-20.246-7.932-28.039-.238-7.813 7.674-7.932 20.226-.238 28.039l73.151 74.361a19.804 19.804 0 0014.138 5.929c.119 0 .258 0 .377.02a19.842 19.842 0 0014.297-6.504l135.059-148.722c7.358-8.131 6.763-20.663-1.347-28.02z"></path>
  </symbol>
</svg>